<?xml version="1.0" encoding="UTF-8" standalone="no" ?>
<!DOCTYPE svg PUBLIC "-//W3C//DTD SVG 1.1//EN" "http://www.w3.org/Graphics/SVG/1.1/DTD/svg11.dtd">
<svg xmlns="http://www.w3.org/2000/svg" xmlns:xlink="http://www.w3.org/1999/xlink" version="1.1" width="1280" height="1024" viewBox="0 0 1280 1024" xml:space="preserve">
<desc>Created with Fabric.js 5.3.0</desc>
<defs>
</defs>
<g transform="matrix(1 0 0 1 640 512)" id="background-logo"  >
<rect style="stroke: none; stroke-width: 0; stroke-dasharray: none; stroke-linecap: butt; stroke-dashoffset: 0; stroke-linejoin: miter; stroke-miterlimit: 4; fill: rgb(255,255,255); fill-opacity: 0; fill-rule: nonzero; opacity: 1;"  paint-order="stroke"  x="-640" y="-512" rx="0" ry="0" width="1280" height="1024" />
</g>
<g transform="matrix(1.9211538461538462 0 0 1.9211538461538462 640 405.99411797243783)" id="logo-logo"  >
<g style=""  paint-order="stroke"   >
		<g transform="matrix(0.46885822870678345 0 0 0.46885822870678345 0 6.821887227683675)"  >
<path style="stroke: none; stroke-width: 1; stroke-dasharray: none; stroke-linecap: butt; stroke-dashoffset: 0; stroke-linejoin: miter; stroke-miterlimit: 4; fill: rgb(157,185,240); fill-rule: nonzero; opacity: 1;"  paint-order="stroke"  transform=" translate(-360, -374.55)" d="M 350.1 289.2 L 353.1 289.2 L 353.1 404.6 L 350.1 404.6 L 350.1 289.2 z M 341.7 410.4 L 344.7 410.4 L 344.7 303.7 L 341.7 303.7 L 341.7 410.4 z M 333.4 416.2 L 336.4 416.2 L 336.4 318.2 L 333.4 318.2 L 333.4 416.2 z M 325 422.1 L 328 422.1 L 328 332.8 L 325 332.8 L 325 422.1 z M 316.6 427.9 L 319.6 427.9 L 319.6 347.29999999999995 L 316.6 347.29999999999995 L 316.6 427.9 z M 308.2 433.7 L 311.2 433.7 L 311.2 361.79999999999995 L 308.2 361.79999999999995 L 308.2 433.7 z M 299.9 439.5 L 302.9 439.5 L 302.9 376.3 L 299.9 376.3 L 299.9 439.5 z M 291.5 445.3 L 294.5 445.3 L 294.5 390.7 L 291.5 390.7 L 291.5 445.3 z M 283.1 451.1 L 286.1 451.1 L 286.1 405.20000000000005 L 283.1 405.20000000000005 L 283.1 451.1 z M 274.7 456.9 L 277.7 456.9 L 277.7 419.7 L 274.7 419.7 L 274.7 456.9 z M 266.4 462.7 L 269.4 462.7 L 269.4 434.2 L 266.4 434.2 L 266.4 462.7 z M 258 468.5 L 261 468.5 L 261 448.7 L 258 448.7 L 258 468.5 z M 249.6 474.3 L 252.6 474.3 L 252.6 463.2 L 249.6 463.2 L 249.6 474.3 z M 358.5 398.8 L 361.5 398.8 L 361.5 274.7 L 358.5 274.7 L 358.5 398.8 z M 366.9 404.6 L 369.9 404.6 L 369.9 289.2 L 366.9 289.2 L 366.9 404.6 z M 375.3 410.4 L 378.3 410.4 L 378.3 303.7 L 375.3 303.7 L 375.3 410.4 z M 383.6 416.2 L 386.6 416.2 L 386.6 318.2 L 383.6 318.2 L 383.6 416.2 z M 392 422.1 L 395 422.1 L 395 332.8 L 392 332.8 L 392 422.1 z M 400.4 427.9 L 403.4 427.9 L 403.4 347.29999999999995 L 400.4 347.29999999999995 L 400.4 427.9 z M 408.8 433.7 L 411.8 433.7 L 411.8 361.79999999999995 L 408.8 361.79999999999995 L 408.8 433.7 z M 417.1 439.5 L 420.1 439.5 L 420.1 376.3 L 417.1 376.3 L 417.1 439.5 z M 425.5 445.3 L 428.5 445.3 L 428.5 390.7 L 425.5 390.7 L 425.5 445.3 z M 433.9 451.1 L 436.9 451.1 L 436.9 405.20000000000005 L 433.9 405.20000000000005 L 433.9 451.1 z M 442.3 456.9 L 445.3 456.9 L 445.3 419.7 L 442.3 419.7 L 442.3 456.9 z M 450.6 462.7 L 453.6 462.7 L 453.6 434.2 L 450.6 434.2 L 450.6 462.7 z M 459 468.5 L 462 468.5 L 462 448.7 L 459 448.7 L 459 468.5 z M 467.4 463.3 L 467.4 474.40000000000003 L 470.4 474.40000000000003 L 470.4 463.3 L 467.4 463.3 z" stroke-linecap="round" />
</g>
		<g transform="matrix(0.46885822870678345 0 0 0.46885822870678345 0 0)"  >
<path style="stroke: none; stroke-width: 1; stroke-dasharray: none; stroke-linecap: butt; stroke-dashoffset: 0; stroke-linejoin: miter; stroke-miterlimit: 4; fill: rgb(188,207,245); fill-rule: nonzero; opacity: 1;"  paint-order="stroke"  transform=" translate(-360, -360)" d="M 591 557.1 L 567.6 545.3000000000001 L 583.4 544.3000000000001 L 561 533.5000000000001 L 575.7 531.5000000000001 L 554.4000000000001 521.7000000000002 L 568.1000000000001 518.7000000000002 L 547.8000000000002 509.8000000000002 L 560.5000000000002 506.00000000000017 L 541.2000000000003 498.00000000000017 L 553.0000000000002 493.3000000000002 L 534.7000000000003 486.1000000000002 L 545.5000000000002 480.6000000000002 L 528.1000000000003 474.2000000000002 L 538.0000000000002 468.0000000000002 L 521.6000000000003 462.30000000000024 L 530.5000000000002 455.40000000000026 L 515.2000000000003 450.10000000000025 L 522.2000000000003 443.60000000000025 L 360 162.9 L 198.4 442.8 L 197.9 443.7 L 204.9 450.2 L 189.6 455.5 L 198.5 462.4 L 182.1 468.09999999999997 L 192 474.29999999999995 L 174.6 480.69999999999993 L 185.4 486.19999999999993 L 167.1 493.3999999999999 L 178.9 498.0999999999999 L 159.6 506.0999999999999 L 172.29999999999998 509.8999999999999 L 151.99999999999997 518.8 L 165.69999999999996 521.8 L 144.39999999999995 531.5999999999999 L 159.09999999999994 533.5999999999999 L 136.69999999999993 544.3999999999999 L 152.49999999999994 545.3999999999999 L 129 557.1 L 591 557.1 z M 201.2 443.2 L 360 168.2 L 518.8 443.2 L 514 447.7 L 360 181.1 L 206 447.7 L 201.2 443.2 z M 360 396.4 L 244.6 477.2 L 360 277.3 L 475.4 477.1 L 360 396.4 z M 360 272 L 240.2 479.5 L 235.39999999999998 475 L 360 259.2 L 484.6 475 L 479.8 479.5 L 360 272 z M 360 253.8 L 233.4 473.1 L 228.6 468.6 L 360 241 L 491.5 468.7 L 486.7 473.2 L 360 253.8 z M 360 235.6 L 226.5 466.8 L 221.7 462.3 L 360 222.8 L 498.3 462.3 L 493.5 466.8 L 360 235.6 z M 360 217.4 L 219.7 460.4 L 214.89999999999998 455.9 L 360 204.6 L 505.1 456 L 500.3 460.5 L 360 217.4 z M 360 199.2 L 212.9 454.1 L 208.1 449.6 L 360 186.4 L 511.9 449.6 L 507.09999999999997 454.1 L 360 199.2 z M 195.1 456.4 L 207 452.29999999999995 L 240.6 483.49999999999994 L 360 469 L 479.4 483.6 L 513 452.40000000000003 L 524.9 456.50000000000006 L 482.7 489 L 360.1 476.1 L 360 477.40000000000003 L 359.9 476.1 L 237.3 489 L 195.1 456.4 z M 188.2 468.8 L 201 464.3 L 236.1 491.40000000000003 L 236.5 491.70000000000005 L 360 478.70000000000005 L 483.5 491.70000000000005 L 519 464.30000000000007 L 531.8 468.80000000000007 L 486.9 497.1000000000001 L 360.09999999999997 485.80000000000007 L 359.99999999999994 487.1000000000001 L 359.8999999999999 485.80000000000007 L 233.0999999999999 497.1000000000001 L 188.2 468.8 z M 181.3 481.1 L 194.8 476.1 L 232 499.6 L 232.4 499.8 L 360 488.5 L 487.1 499.8 L 487.5 499.8 L 525.1 476.1 L 538.6 481.1 L 491 505.3 L 360 495.6 L 360 497 L 359.9 495.7 L 228.89999999999998 505.4 L 181.3 481.1 z M 174.4 493.4 L 188.6 487.79999999999995 L 228 507.79999999999995 L 228.3 507.99999999999994 L 360 498.29999999999995 L 491.3 507.99999999999994 L 491.7 507.99999999999994 L 531.4 487.79999999999995 L 545.6 493.4 L 495.3 513.5 L 360 505.4 L 359.9 506.7 L 359.79999999999995 505.4 L 224.49999999999994 513.5 L 174.4 493.4 z M 167.5 505.7 L 182.4 499.5 L 223.9 516.1 L 224.20000000000002 516.2 L 360 508.1 L 495.5 516.2 L 495.8 516.2 L 537.6 499.50000000000006 L 552.5 505.70000000000005 L 499.6 521.7 L 360.1 515.2 L 360 516.5 L 359.9 515.2 L 220.39999999999998 521.7 L 167.5 505.7 z M 160.7 517.9 L 176.2 511.09999999999997 L 220.1 524.4 L 360 517.9 L 499.7 524.4 L 499.9 524.4 L 543.8 511.09999999999997 L 559.3 517.9 L 503.79999999999995 529.9 L 360 525 L 360 526.3 L 360 525 L 216.3 529.9 L 160.7 517.9 z M 153.9 530.1 L 170.1 522.7 L 215.89999999999998 532.6 L 216.09999999999997 532.6 L 360.09999999999997 527.8000000000001 L 504 532.6 L 504.2 532.6 L 550.1 522.7 L 566.3000000000001 530.1 L 508.20000000000005 538.1 L 360.20000000000005 534.9 L 360.20000000000005 536.1999999999999 L 360.20000000000005 534.9 L 212.20000000000005 538.1 L 153.9 530.1 z M 147.1 542.3 L 163.9 534.1999999999999 L 211.8 540.8 L 359.9 537.5999999999999 L 507.9 540.8 L 508 540.8 L 555.9 534.1999999999999 L 572.6999999999999 542.3 L 512.0999999999999 546.3 L 360 544.6 L 360 545.9 L 360 544.6 L 207.9 546.2 L 147.1 542.3 z M 157.8 545.7 L 207.8 549 L 360 547.4 L 512.3 549 L 562.1999999999999 545.8 L 579.5999999999999 554.5999999999999 L 140.4 554.5999999999999 L 157.8 545.7 z" stroke-linecap="round" />
</g>
</g>
</g>
<g transform="matrix(1.9211538461538462 0 0 1.9211538461538462 640.0677206730769 673.9224083320776)" id="text-logo"  >
<g style=""  paint-order="stroke"   >
		<g transform="matrix(1 0 0 1 0 0)" id="text-logo-path-0"  >
<path style="stroke: none; stroke-width: 0; stroke-dasharray: none; stroke-linecap: butt; stroke-dashoffset: 0; stroke-linejoin: miter; stroke-miterlimit: 4; fill: rgb(188,207,245); fill-rule: nonzero; opacity: 1;"  paint-order="stroke"  transform=" translate(-220.17, 16.45)" d="M 4.7 -1.08 L 4.7 -14.24 L 13.11 -14.24 C 18.19 -14.24 22.37 -18.47 22.37 -23.64 C 22.37 -28.72 18.19 -32.9 13.11 -32.9 L 3.76 -32.9 C 2.96 -32.9 2.35 -32.29 2.35 -31.49 L 2.35 -1.08 C 2.35 -0.42 2.87 0.09 3.52 0.09 C 4.18 0.09 4.7 -0.42 4.7 -1.08 Z M 4.7 -16.59 L 4.7 -30.55 L 13.11 -30.55 C 17.06 -30.55 20.02 -27.59 20.02 -23.64 C 20.02 -19.6 17.06 -16.59 13.11 -16.59 Z M 59.03 -31.87 L 59.03 -11.33 C 59.03 -6.44 55.37 -2.82 50.62 -2.82 C 45.78 -2.82 42.11 -6.44 42.11 -11.33 L 42.11 -31.87 C 42.11 -32.48 41.59 -33.04 40.94 -33.04 C 40.28 -33.04 39.76 -32.48 39.76 -31.87 L 39.76 -11.33 C 39.76 -5.31 44.65 -0.47 50.62 -0.47 C 56.49 -0.47 61.38 -5.31 61.38 -11.33 L 61.38 -31.87 C 61.38 -32.48 60.86 -33.04 60.21 -33.04 C 59.55 -33.04 59.03 -32.48 59.03 -31.87 Z M 81.12 -16.87 L 89.96 -16.87 C 94 -16.87 97.05 -13.49 97.05 -9.4 C 97.05 -5.31 94.05 -2.35 89.96 -2.35 L 81.12 -2.35 Z M 78.77 -1.41 C 78.77 -0.61 79.38 0 80.18 0 L 89.96 0 C 95.17 0 99.41 -4.14 99.41 -9.4 C 99.41 -13.54 96.68 -17.39 92.92 -18.71 C 94.7 -20.3 95.88 -22.7 95.88 -25.19 C 95.88 -29.42 92.4 -32.9 88.17 -32.9 L 80.18 -32.9 C 79.38 -32.9 78.77 -32.29 78.77 -31.49 Z M 81.12 -19.22 L 81.12 -30.55 L 88.17 -30.55 C 91.27 -30.55 93.53 -28.29 93.53 -25.19 C 93.53 -21.95 91.18 -19.22 88.17 -19.22 Z M 145 -1.08 L 145 -31.4 C 145 -32.99 142.83 -33.51 142.03 -32.2 L 130.89 -13.35 L 119.76 -32.2 C 118.96 -33.51 116.79 -32.99 116.79 -31.4 L 116.79 -1.08 C 116.79 -0.42 117.31 0.09 117.97 0.09 C 118.63 0.09 119.14 -0.42 119.14 -1.08 L 119.14 -28.53 L 129.63 -10.86 C 130.19 -9.87 131.6 -9.87 132.16 -10.86 L 142.64 -28.53 L 142.64 -1.08 C 142.64 -0.42 143.16 0.09 143.82 0.09 C 144.48 0.09 145 -0.42 145 -1.08 Z M 181.84 -2.35 L 164.73 -2.35 L 164.73 -15.74 L 178.55 -15.74 C 179.16 -15.74 179.73 -16.26 179.73 -16.92 C 179.73 -17.58 179.16 -18.09 178.55 -18.09 L 164.73 -18.09 L 164.73 -30.55 L 181.84 -30.55 C 182.45 -30.55 183.02 -31.07 183.02 -31.73 C 183.02 -32.38 182.45 -32.9 181.84 -32.9 L 163.79 -32.9 C 163 -32.9 162.38 -32.29 162.38 -31.49 L 162.38 -1.41 C 162.38 -0.61 163 0 163.79 0 L 181.84 0 C 182.45 0 183.02 -0.52 183.02 -1.18 C 183.02 -1.83 182.45 -2.35 181.84 -2.35 Z M 208.02 -32.9 L 201.39 -32.9 C 200.6 -32.9 199.98 -32.29 199.98 -31.49 L 199.98 -1.41 C 199.98 -0.61 200.6 0 201.39 0 L 208.02 0 C 216.81 0 223.95 -7.57 223.95 -16.5 C 223.95 -25.33 216.81 -32.9 208.02 -32.9 Z M 202.33 -2.35 L 202.33 -30.55 L 208.02 -30.55 C 215.64 -30.55 221.6 -24.2 221.6 -16.5 C 221.6 -8.7 215.64 -2.35 208.02 -2.35 Z M 291.64 -1.08 L 291.64 -31.4 C 291.64 -32.99 289.47 -33.51 288.67 -32.2 L 277.54 -13.35 L 266.4 -32.2 C 265.6 -33.51 263.44 -32.99 263.44 -31.4 L 263.44 -1.08 C 263.44 -0.42 263.95 0.09 264.61 0.09 C 265.27 0.09 265.79 -0.42 265.79 -1.08 L 265.79 -28.53 L 276.27 -10.86 C 276.83 -9.87 278.24 -9.87 278.8 -10.86 L 289.29 -28.53 L 289.29 -1.08 C 289.29 -0.42 289.8 0.09 290.46 0.09 C 291.12 0.09 291.64 -0.42 291.64 -1.08 Z M 309.78 -30.55 L 313.44 -30.55 L 313.44 -2.35 L 309.78 -2.35 C 309.12 -2.35 308.6 -1.83 308.6 -1.18 C 308.6 -0.52 309.12 0 309.78 0 L 319.46 0 C 320.07 0 320.63 -0.52 320.63 -1.18 C 320.63 -1.83 320.07 -2.35 319.46 -2.35 L 315.79 -2.35 L 315.79 -30.55 L 319.46 -30.55 C 320.07 -30.55 320.63 -31.07 320.63 -31.73 C 320.63 -32.38 320.07 -32.9 319.46 -32.9 L 309.78 -32.9 C 309.12 -32.9 308.6 -32.38 308.6 -31.73 C 308.6 -31.07 309.12 -30.55 309.78 -30.55 Z M 339.95 -1.08 L 339.86 -28.67 L 360.16 -0.61 C 361.1 0.56 362.98 -0.09 362.98 -1.55 L 362.98 -31.87 C 362.98 -32.48 362.46 -33.04 361.81 -33.04 C 361.15 -33.04 360.63 -32.48 360.63 -31.87 L 360.63 -4 L 340.09 -32.38 C 339.25 -33.51 337.51 -32.76 337.51 -31.4 L 337.6 -1.03 C 337.6 -0.42 338.12 0.14 338.78 0.14 C 339.43 0.14 339.95 -0.42 339.95 -1.08 Z M 399.83 -2.35 L 382.72 -2.35 L 382.72 -15.74 L 396.54 -15.74 C 397.15 -15.74 397.71 -16.26 397.71 -16.92 C 397.71 -17.58 397.15 -18.09 396.54 -18.09 L 382.72 -18.09 L 382.72 -30.55 L 399.83 -30.55 C 400.44 -30.55 401 -31.07 401 -31.73 C 401 -32.38 400.44 -32.9 399.83 -32.9 L 381.78 -32.9 C 380.98 -32.9 380.37 -32.29 380.37 -31.49 L 380.37 -1.41 C 380.37 -0.61 380.98 0 381.78 0 L 399.83 0 C 400.44 0 401 -0.52 401 -1.18 C 401 -1.83 400.44 -2.35 399.83 -2.35 Z M 420.32 -1.08 L 420.32 -13.77 L 428.73 -13.77 L 429.16 -13.77 L 435.64 -0.66 C 435.83 -0.28 436.21 0 436.68 0 C 437.34 0 437.85 -0.52 437.85 -1.18 C 437.85 -1.36 437.81 -1.55 437.71 -1.74 L 431.55 -14.19 C 435.27 -15.42 437.99 -18.99 437.99 -23.17 C 437.99 -28.25 433.81 -32.43 428.73 -32.43 L 419.38 -32.43 C 418.58 -32.43 417.97 -31.82 417.97 -31.02 L 417.97 -1.08 C 417.97 -0.42 418.49 0.09 419.15 0.09 C 419.8 0.09 420.32 -0.42 420.32 -1.08 Z M 420.32 -16.12 L 420.32 -30.08 L 428.73 -30.08 C 432.68 -30.08 435.64 -27.12 435.64 -23.17 C 435.64 -19.13 432.68 -16.12 428.73 -16.12 Z" stroke-linecap="round" />
</g>
</g>
</g>
<g transform="matrix(1 0 0 1 325 399.79710288368403)" id="tagline-8740c419-ed7e-4c93-8789-2e6e10e239f5-logo"  >
<g style=""  paint-order="stroke"   >
		<g transform="matrix(1 0 0 1 0 0)" id="tagline-8740c419-ed7e-4c93-8789-2e6e10e239f5-logo-path-0"  >
<path style="stroke: none; stroke-width: 0; stroke-dasharray: none; stroke-linecap: butt; stroke-dashoffset: 0; stroke-linejoin: miter; stroke-miterlimit: 4; fill: rgb(157,185,240); fill-rule: nonzero; opacity: 1;"  paint-order="stroke"  transform=" translate(0, 0)" d="" stroke-linecap="round" />
</g>
</g>
</g>
</svg>